HIERARCHY
ROOT Hips
{
	OFFSET 0.000000 89.005402 0.000000
	CHANNELS 6 Xposition Yposition Zposition Xrotation Yrotation Zrotation
	JOINT Spine
	{
		OFFSET 0.116900 10.681000 0.373400
		CHANNELS 3 Xrotation Yrotation Zrotation
		JOINT Spine1
		{
			OFFSET 0.000000 13.840401 0.053500
			CHANNELS 3 Xrotation Yrotation Zrotation
			JOINT Spine2
			{
				OFFSET 0.000000 14.712700 -0.366200
				CHANNELS 3 Xrotation Yrotation Zrotation
				JOINT Neck
				{
					OFFSET 0.000000 35.415497 -3.314200
					CHANNELS 3 Xrotation Yrotation Zrotation
					JOINT Head
					{
						OFFSET 0.000000 16.899200 1.218300
						CHANNELS 3 Xrotation Yrotation Zrotation
						JOINT HeadTop_End
						{
							OFFSET 0.000000 22.206207 2.192500
							CHANNELS 3 Xrotation Yrotation Zrotation
							End Site
							{
								OFFSET 0.000000 22.314178 0.000000
							}
						}
					}
				}
				JOINT LeftShoulder
				{
					OFFSET 12.896400 26.716293 -4.548400
					CHANNELS 3 Xrotation Yrotation Zrotation
					JOINT LeftArm
					{
						OFFSET 19.027000 -4.857010 -1.718400
						CHANNELS 3 Xrotation Yrotation Zrotation
						JOINT LeftForeArm
						{
							OFFSET 24.179897 0.000000 0.000000
							CHANNELS 3 Xrotation Yrotation Zrotation
							JOINT LeftHand
							{
								OFFSET 27.156403 0.000000 0.000000
								CHANNELS 3 Xrotation Yrotation Zrotation
								JOINT LeftHandIndex1
								{
									OFFSET 16.441200 0.000000 0.000000
									CHANNELS 3 Xrotation Yrotation Zrotation
									JOINT LeftHandIndex2
									{
										OFFSET 4.821899 0.000000 0.000000
										CHANNELS 3 Xrotation Yrotation Zrotation
										JOINT LeftHandIndex3
										{
											OFFSET 6.386497 0.000000 0.000000
											CHANNELS 3 Xrotation Yrotation Zrotation
											JOINT LeftHandIndex4
											{
												OFFSET 5.188988 0.000000 0.000000
												CHANNELS 3 Xrotation Yrotation Zrotation
												End Site
												{
													OFFSET -0.178703 5.185913 0.000177
												}
											}
										}
									}
								}
								JOINT LeftHandThumb1
								{
									OFFSET 6.534897 -5.032593 5.900300
									CHANNELS 3 Xrotation Yrotation Zrotation
									JOINT LeftHandThumb2
									{
										OFFSET 3.818176 -2.204422 2.204423
										CHANNELS 3 Xrotation Yrotation Zrotation
										JOINT LeftHandThumb3
										{
											OFFSET 3.252098 -1.877594 1.877601
											CHANNELS 3 Xrotation Yrotation Zrotation
											JOINT LeftHandThumb4
											{
												OFFSET 5.251778 -3.032120 3.032117
												CHANNELS 3 Xrotation Yrotation Zrotation
												End Site
												{
													OFFSET 0.000023 6.780014 0.000000
												}
											}
										}
									}
								}
							}
						}
					}
				}
				JOINT RightShoulder
				{
					OFFSET -12.896300 26.716293 -4.548400
					CHANNELS 3 Xrotation Yrotation Zrotation
					JOINT RightArm
					{
						OFFSET -19.027000 -4.857010 -1.718400
						CHANNELS 3 Xrotation Yrotation Zrotation
						JOINT RightForeArm
						{
							OFFSET -24.179897 0.000000 0.000000
							CHANNELS 3 Xrotation Yrotation Zrotation
							JOINT RightHand
							{
								OFFSET -27.156403 0.000000 0.000000
								CHANNELS 3 Xrotation Yrotation Zrotation
								JOINT RightHandThumb1
								{
									OFFSET -6.591202 -4.852203 5.988100
									CHANNELS 3 Xrotation Yrotation Zrotation
									JOINT RightHandThumb2
									{
										OFFSET -3.818176 -2.204422 2.204423
										CHANNELS 3 Xrotation Yrotation Zrotation
										JOINT RightHandThumb3
										{
											OFFSET -3.252098 -1.877594 1.877601
											CHANNELS 3 Xrotation Yrotation Zrotation
											JOINT RightHandThumb4
											{
												OFFSET -5.251778 -3.032120 3.032117
												CHANNELS 3 Xrotation Yrotation Zrotation
												End Site
												{
													OFFSET -0.000023 6.780014 0.000000
												}
											}
										}
									}
								}
								JOINT RightHandIndex1
								{
									OFFSET -16.029404 0.000000 0.000000
									CHANNELS 3 Xrotation Yrotation Zrotation
									JOINT RightHandIndex2
									{
										OFFSET -5.213303 0.000000 0.000000
										CHANNELS 3 Xrotation Yrotation Zrotation
										JOINT RightHandIndex3
										{
											OFFSET -6.386528 0.000000 0.000000
											CHANNELS 3 Xrotation Yrotation Zrotation
											JOINT RightHandIndex4
											{
												OFFSET -5.189026 0.000000 0.000000
												CHANNELS 3 Xrotation Yrotation Zrotation
												End Site
												{
													OFFSET 0.236702 5.183624 0.001972
												}
											}
										}
									}
								}
							}
						}
					}
				}
			}
		}
	}
	JOINT LeftUpLeg
	{
		OFFSET 14.073000 -7.904099 -1.463000
		CHANNELS 3 Xrotation Yrotation Zrotation
		JOINT LeftLeg
		{
			OFFSET -0.109806 -34.073280 4.093200
			CHANNELS 3 Xrotation Yrotation Zrotation
			JOINT LeftFoot
			{
				OFFSET 0.109806 -29.899420 -6.319000
				CHANNELS 3 Xrotation Yrotation Zrotation
				JOINT LeftToeBase
				{
					OFFSET 1.551100 -14.988700 20.535801
					CHANNELS 3 Xrotation Yrotation Zrotation
					JOINT LeftToe_End
					{
						OFFSET 0.221200 0.570800 13.248301
						CHANNELS 3 Xrotation Yrotation Zrotation
						End Site
						{
							OFFSET 0.000000 13.262435 0.000000
						}
					}
				}
			}
		}
	}
	JOINT RightUpLeg
	{
		OFFSET -13.839300 -7.904099 -1.463000
		CHANNELS 3 Xrotation Yrotation Zrotation
		JOINT RightLeg
		{
			OFFSET 0.109694 -34.073219 4.093300
			CHANNELS 3 Xrotation Yrotation Zrotation
			JOINT RightFoot
			{
				OFFSET -0.109694 -29.899384 -6.319200
				CHANNELS 3 Xrotation Yrotation Zrotation
				JOINT RightToeBase
				{
					OFFSET -1.551100 -14.988700 20.535801
					CHANNELS 3 Xrotation Yrotation Zrotation
					JOINT RightToe_End
					{
						OFFSET -0.221200 0.570900 13.248299
						CHANNELS 3 Xrotation Yrotation Zrotation
						End Site
						{
							OFFSET 0.000000 13.262440 0.000000
						}
					}
				}
			}
		}
	}
}
MOTION
Frames: 4
Frame Time: 0.033333
-28.557732 85.385338 -99.616508 -4.301235 4.671536 2.801096 1.188598 1.699506 -2.188236 2.410554 3.552881 -0.598828 2.425950 3.542447 -0.602122 3.474266 -2.550861 -2.325524 14.992115 -16.371385 4.743022 0.000001 -0.000000 -0.000000 0.529013 -1.235826 -14.797067 15.696565 -5.474176 -61.486490 0.000003 -39.895207 0.000014 47.121147 16.926829 -12.768021 -3.460455 -12.095898 -14.092540 1.012815 3.294255 -34.171911 0.054631 0.799022 -7.821971 0.000002 -0.000001 -0.000000 58.220382 1.033570 39.048482 81.950351 -1.423281 50.782450 -16.364435 3.424179 -1.388855 0.000001 -0.000001 0.000000 0.811721 3.454957 11.576190 -37.700097 4.756382 71.622238 -0.000000 26.888191 0.000000 -51.914495 -8.625367 -5.298389 6.032405 19.334186 -10.511721 -14.980968 -33.566709 -3.689343 -12.997631 -22.221969 -16.841698 0.000001 0.000001 0.000002 0.160856 -4.210658 3.554336 0.350235 -1.773552 22.340191 0.350235 -1.773567 22.340217 0.000002 -0.000000 -0.000000 1.998308 4.144224 -5.414713 19.237421 9.623581 -1.444299 -18.266077 -0.303048 0.983188 1.252388 0.330110 -0.590931 0.000000 0.000001 -0.000000 -15.115960 -10.157706 -12.378248 26.910857 -7.569093 -1.331029 -8.606879 -2.852583 8.622211 1.943334 -0.000018 0.000001 0.000000 -0.000001 0.000000 
-28.633530 85.440857 -99.753822 -4.570489 5.096725 2.832072 1.213192 1.705562 -2.212872 2.459870 3.548517 -0.643083 2.475428 3.537762 -0.646301 3.590686 -2.625566 -2.253204 15.470010 -16.727044 5.496593 0.000001 -0.000000 -0.000000 0.513489 -1.266276 -14.558275 14.056245 -4.708216 -62.094336 0.000001 -39.142407 0.000014 49.867805 16.001569 -15.127865 -3.679228 -12.557353 -14.507364 0.919083 3.151991 -32.504874 0.054620 0.799024 -7.821993 -0.000001 0.000002 -0.000002 58.220382 1.033570 39.048478 81.950372 -1.423280 50.782433 -16.614608 2.864365 -1.533348 0.000001 0.000000 0.000002 0.861277 3.941735 11.314084 -41.084428 5.725298 71.905875 -0.000003 23.690175 -0.000006 -52.975565 -7.657698 -6.122173 5.832673 18.962811 -10.596350 -14.772968 -33.609349 -3.513331 -12.794484 -22.275868 -16.790640 -0.000001 -0.000001 0.000002 0.161754 -4.252610 3.492628 0.343094 -1.756068 22.108255 0.343085 -1.756099 22.108274 -0.000001 0.000001 -0.000000 2.108281 4.176486 -5.297814 19.174735 9.144779 -1.451247 -18.035709 -0.313894 1.087106 1.151943 0.240582 -0.491610 -0.000000 -0.000000 0.000000 -14.768575 -10.596775 -12.466524 26.708198 -7.336620 -1.153106 -8.534564 -3.062421 8.390393 2.075172 -0.000004 -0.000001 0.000000 -0.000001 -0.000000 
-28.711664 85.497055 -99.826294 -4.838553 5.733414 2.871861 1.214856 1.724275 -2.225522 2.462615 3.560649 -0.686517 2.478250 3.549864 -0.689711 3.702941 -2.748702 -2.111939 16.093490 -17.196412 6.168870 0.000000 -0.000000 0.000000 0.498427 -1.349446 -14.426336 12.713687 -5.090879 -61.964152 -0.000005 -37.748902 -0.000020 52.651913 15.469663 -15.851365 -3.872234 -12.889096 -14.910846 0.841429 3.026864 -31.064175 0.054624 0.799039 -7.821994 0.000001 -0.000001 0.000001 58.220355 1.033563 39.048485 81.950358 -1.423277 50.782453 -16.782837 2.489891 -1.631397 0.000003 -0.000000 0.000002 0.930208 4.008353 10.945826 -43.376124 6.242553 72.082470 -0.000011 21.555433 0.000000 -53.897648 -6.923899 -6.709698 5.647941 18.644803 -10.644762 -14.615637 -33.611122 -3.379803 -12.550360 -22.417541 -16.712356 -0.000004 -0.000002 0.000001 0.162968 -4.204160 3.643326 0.342392 -1.754348 22.085253 0.342393 -1.754343 22.085251 -0.000001 0.000000 -0.000000 2.238952 4.254933 -5.155978 19.107130 8.419088 -1.436118 -17.818790 -0.342093 1.223040 0.926502 0.193930 -0.394764 0.000000 -0.000000 -0.000000 -14.290367 -11.026208 -12.555792 26.518197 -7.289124 -0.971892 -8.560134 -3.333837 8.249629 2.094372 -0.000001 -0.000003 0.000000 -0.000001 0.000000 
-28.774216 85.549568 -99.843719 -4.929402 6.130935 2.906361 1.179175 1.750446 -2.262332 2.389354 3.608473 -0.724278 2.405507 3.597770 -0.727552 3.767850 -2.826005 -2.041496 16.737653 -17.539371 6.907906 -0.000001 0.000000 -0.000000 0.493822 -1.259937 -14.547808 11.775156 -5.853578 -61.329662 0.000013 -36.519352 0.000015 55.812570 14.967548 -16.106276 -3.996031 -13.048833 -15.200690 0.787277 2.935211 -30.022916 0.054621 0.799032 -7.821981 0.000000 -0.000000 0.000000 58.220362 1.033564 39.048468 81.950372 -1.423273 50.782429 -16.857358 2.324531 -1.675056 -0.000001 -0.000001 0.000003 1.000382 4.132279 10.549508 -44.376569 6.125641 72.064404 -0.000003 21.305687 0.000013 -54.563588 -6.681142 -7.417854 5.596974 18.518697 -10.660531 -14.596727 -33.557221 -3.370083 -12.451172 -22.496982 -16.673426 0.000001 0.000002 -0.000000 0.165030 -4.138744 3.879078 0.344050 -1.758454 22.139722 0.344050 -1.758468 22.139713 0.000002 -0.000000 0.000001 2.253811 4.264982 -5.097757 18.967533 8.011668 -1.388647 -17.599051 -0.351257 1.279918 0.826468 0.194712 -0.369346 0.000000 -0.000001 0.000000 -13.972364 -11.054803 -12.397795 26.304570 -7.339669 -1.134662 -8.521688 -3.762891 8.320601 2.186401 0.000005 0.000001 0.000000 0.000000 -0.000000 
